<mxfile host="app.diagrams.net" agent="Mozilla/5.0 (Windows NT 10.0; Win64; x64) AppleWebKit/537.36 (KHTML, like Gecko) Chrome/135.0.0.0 Safari/537.36" version="26.0.16">
  <diagram name="Page-1" id="97916047-d0de-89f5-080d-49f4d83e522f">
    <mxGraphModel dx="954" dy="558" grid="0" gridSize="10" guides="1" tooltips="1" connect="1" arrows="1" fold="1" page="1" pageScale="1.5" pageWidth="1169" pageHeight="827" background="#ffffff" math="0" shadow="0">
      <root>
        <mxCell id="0" />
        <mxCell id="1" parent="0" />
        <mxCell id="o7-bvaqKP_dDod-U7th3-84" style="edgeStyle=orthogonalEdgeStyle;rounded=0;orthogonalLoop=1;jettySize=auto;html=1;" edge="1" parent="1">
          <mxGeometry relative="1" as="geometry">
            <mxPoint x="669" y="37" as="sourcePoint" />
            <mxPoint x="229.5" y="131" as="targetPoint" />
            <Array as="points">
              <mxPoint x="669" y="38" />
              <mxPoint x="230" y="38" />
            </Array>
          </mxGeometry>
        </mxCell>
        <mxCell id="o7-bvaqKP_dDod-U7th3-85" style="edgeStyle=orthogonalEdgeStyle;rounded=0;orthogonalLoop=1;jettySize=auto;html=1;exitX=0;exitY=0.5;exitDx=0;exitDy=0;" edge="1" parent="1" source="o7-bvaqKP_dDod-U7th3-79">
          <mxGeometry relative="1" as="geometry">
            <mxPoint x="667" y="37" as="sourcePoint" />
            <mxPoint x="501" y="135" as="targetPoint" />
          </mxGeometry>
        </mxCell>
        <mxCell id="o7-bvaqKP_dDod-U7th3-86" style="edgeStyle=orthogonalEdgeStyle;rounded=0;orthogonalLoop=1;jettySize=auto;html=1;" edge="1" parent="1" source="o7-bvaqKP_dDod-U7th3-79" target="o7-bvaqKP_dDod-U7th3-83">
          <mxGeometry relative="1" as="geometry" />
        </mxCell>
        <mxCell id="o7-bvaqKP_dDod-U7th3-87" style="edgeStyle=orthogonalEdgeStyle;rounded=0;orthogonalLoop=1;jettySize=auto;html=1;" edge="1" parent="1" source="o7-bvaqKP_dDod-U7th3-79" target="o7-bvaqKP_dDod-U7th3-82">
          <mxGeometry relative="1" as="geometry" />
        </mxCell>
        <mxCell id="o7-bvaqKP_dDod-U7th3-79" value="Service Test Cases" style="rounded=1;whiteSpace=wrap;html=1;fillColor=#7EA6E0;" vertex="1" parent="1">
          <mxGeometry x="669" y="17" width="92" height="40" as="geometry" />
        </mxCell>
        <mxCell id="o7-bvaqKP_dDod-U7th3-80" value="Only on Path" style="rounded=1;whiteSpace=wrap;html=1;fillColor=#7EA6E0;" vertex="1" parent="1">
          <mxGeometry x="186" y="131" width="87" height="42" as="geometry" />
        </mxCell>
        <mxCell id="o7-bvaqKP_dDod-U7th3-81" value="Only on Augmented Node" style="rounded=1;whiteSpace=wrap;html=1;fillColor=#7EA6E0;" vertex="1" parent="1">
          <mxGeometry x="455" y="135" width="96" height="42" as="geometry" />
        </mxCell>
        <mxCell id="o7-bvaqKP_dDod-U7th3-93" style="edgeStyle=orthogonalEdgeStyle;rounded=0;orthogonalLoop=1;jettySize=auto;html=1;" edge="1" parent="1" source="o7-bvaqKP_dDod-U7th3-82" target="o7-bvaqKP_dDod-U7th3-89">
          <mxGeometry relative="1" as="geometry" />
        </mxCell>
        <mxCell id="o7-bvaqKP_dDod-U7th3-82" value="On Both" style="rounded=1;whiteSpace=wrap;html=1;fillColor=#7EA6E0;" vertex="1" parent="1">
          <mxGeometry x="716" y="131" width="87" height="42" as="geometry" />
        </mxCell>
        <mxCell id="o7-bvaqKP_dDod-U7th3-83" value="No Service" style="rounded=1;whiteSpace=wrap;html=1;fillColor=#7EA6E0;" vertex="1" parent="1">
          <mxGeometry x="1089" y="129" width="87" height="42" as="geometry" />
        </mxCell>
        <mxCell id="o7-bvaqKP_dDod-U7th3-88" value="Full Match" style="rounded=1;whiteSpace=wrap;html=1;fillColor=#7EA6E0;" vertex="1" parent="1">
          <mxGeometry x="556" y="263" width="87" height="49" as="geometry" />
        </mxCell>
        <mxCell id="o7-bvaqKP_dDod-U7th3-89" value="VLAN Match" style="rounded=1;whiteSpace=wrap;html=1;fillColor=#7EA6E0;" vertex="1" parent="1">
          <mxGeometry x="716" y="263" width="87" height="49" as="geometry" />
        </mxCell>
        <mxCell id="o7-bvaqKP_dDod-U7th3-90" value="Userlabel Match" style="rounded=1;whiteSpace=wrap;html=1;fillColor=#7EA6E0;" vertex="1" parent="1">
          <mxGeometry x="882" y="263" width="87" height="49" as="geometry" />
        </mxCell>
        <mxCell id="o7-bvaqKP_dDod-U7th3-94" value="" style="endArrow=classic;html=1;rounded=0;entryX=0.437;entryY=0;entryDx=0;entryDy=0;entryPerimeter=0;" edge="1" parent="1" target="o7-bvaqKP_dDod-U7th3-88">
          <mxGeometry width="50" height="50" relative="1" as="geometry">
            <mxPoint x="759" y="207" as="sourcePoint" />
            <mxPoint x="570" y="203" as="targetPoint" />
          </mxGeometry>
        </mxCell>
        <mxCell id="o7-bvaqKP_dDod-U7th3-95" value="" style="endArrow=classic;html=1;rounded=0;" edge="1" parent="1">
          <mxGeometry width="50" height="50" relative="1" as="geometry">
            <mxPoint x="759" y="206" as="sourcePoint" />
            <mxPoint x="924" y="262" as="targetPoint" />
          </mxGeometry>
        </mxCell>
      </root>
    </mxGraphModel>
  </diagram>
</mxfile>
